<?xml version="1.0" encoding="utf-8"?>
<!-- Generator: Adobe Illustrator 16.0.0, SVG Export Plug-In . SVG Version: 6.00 Build 0)  -->
<!DOCTYPE svg PUBLIC "-//W3C//DTD SVG 1.1//EN" "http://www.w3.org/Graphics/SVG/1.1/DTD/svg11.dtd">
<svg version="1.1" id="Icons" xmlns="http://www.w3.org/2000/svg" xmlns:xlink="http://www.w3.org/1999/xlink" x="0px" y="0px"
	 width="300px" height="300px" viewBox="0 0 300 300" enable-background="new 0 0 300 300" xml:space="preserve">
<g>
	<g>
		<g>
			<rect x="256" y="171.522" fill="#FFFFFF" width="10.801" height="70.247"/>
		</g>
		<g>
			<path fill="#FFFFFF" d="M43.994,241.77H33.194V100.473c0-7.173,5.837-13.01,13.011-13.01h44.954v10.801H46.204
				c-1.218,0-2.21,0.991-2.21,2.209V241.77z"/>
		</g>
		<g>
			<rect x="58.171" y="214.547" fill="#FFFFFF" width="183.661" height="10.801"/>
		</g>
		<g>
			<rect x="58.171" y="109.064" fill="#FFFFFF" width="32.987" height="10.801"/>
		</g>
		<g>
			<path fill="#FFFFFF" d="M277.257,267.596H22.741c-8.885,0-19.402-7.662-20.572-8.535L0,257.439v-21.776h300v21.778l-2.17,1.619
				C296.659,259.935,286.141,267.596,277.257,267.596z M10.801,251.898c3.573,2.299,8.67,4.896,11.94,4.896h254.516
				c3.346,0,8.554-2.736,11.942-4.902v-5.429H10.801V251.898z"/>
		</g>
	</g>
	<g>
		<g>
			<path fill="#FFFFFF" d="M202.859,189.908l-17.902-33.438h-65.124c-7.781,0-14.112-6.939-14.112-15.468V47.882
				c0-8.534,6.331-15.479,14.112-15.479h166.039c7.79,0,14.129,6.944,14.129,15.479v93.121c0,8.529-6.339,15.468-14.129,15.468
				h-65.108L202.859,189.908z M119.832,43.205c-1.796,0-3.312,2.143-3.312,4.678v93.121c0,2.53,1.516,4.667,3.312,4.667h71.596
				l11.431,21.357l11.439-21.357h71.573c1.804,0,3.328-2.137,3.328-4.667V47.882c0-2.535-1.524-4.678-3.328-4.678H119.832z"/>
		</g>
		<g>
			<g>
				<path fill="#FFFFFF" d="M162.989,109.102c-8.721,0-15.816-7.098-15.816-15.822c0-8.718,7.096-15.811,15.816-15.811
					c8.72,0,15.816,7.093,15.816,15.811C178.805,102.004,171.708,109.102,162.989,109.102z M162.989,88.27
					c-2.767,0-5.016,2.248-5.016,5.01c0,2.769,2.249,5.021,5.016,5.021c2.766,0,5.016-2.252,5.016-5.021
					C168.004,90.518,165.754,88.27,162.989,88.27z"/>
			</g>
			<g>
				<path fill="#FFFFFF" d="M202.859,109.102c-8.726,0-15.824-7.098-15.824-15.822c0-8.718,7.099-15.811,15.824-15.811
					c8.721,0,15.816,7.093,15.816,15.811C218.675,102.004,211.579,109.102,202.859,109.102z M202.859,88.27
					c-2.769,0-5.023,2.248-5.023,5.01c0,2.769,2.255,5.021,5.023,5.021c2.767,0,5.016-2.252,5.016-5.021
					C207.874,90.518,205.625,88.27,202.859,88.27z"/>
			</g>
			<g>
				<path fill="#FFFFFF" d="M242.726,109.102c-8.723,0-15.818-7.098-15.818-15.822c0-8.718,7.096-15.811,15.818-15.811
					c8.724,0,15.819,7.093,15.819,15.811C258.545,102.004,251.449,109.102,242.726,109.102z M242.726,88.27
					c-2.766,0-5.018,2.248-5.018,5.01c0,2.769,2.252,5.021,5.018,5.021c2.767,0,5.019-2.252,5.019-5.021
					C247.744,90.518,245.492,88.27,242.726,88.27z"/>
			</g>
		</g>
	</g>
</g>
</svg>
