<?xml version="1.0" encoding="utf-8"?>
<!-- Generator: Adobe Illustrator 16.0.0, SVG Export Plug-In . SVG Version: 6.00 Build 0)  -->
<!DOCTYPE svg PUBLIC "-//W3C//DTD SVG 1.1//EN" "http://www.w3.org/Graphics/SVG/1.1/DTD/svg11.dtd">
<svg version="1.1" id="圖層_1" xmlns="http://www.w3.org/2000/svg" xmlns:xlink="http://www.w3.org/1999/xlink" x="0px" y="0px"
	 width="90px" height="85.781px" viewBox="0 0 90 85.781" enable-background="new 0 0 90 85.781" xml:space="preserve">
<path fill-rule="evenodd" clip-rule="evenodd" d="M90,36.382c-0.194,7.512-2.954,14.013-7.614,19.768
	c-5.557,6.862-12.508,12.18-19.554,17.364c-5.86,4.312-12.036,8.139-18.495,11.499c-0.338,0.176-0.687,0.336-1.042,0.473
	c-0.854,0.326-1.729,0.518-2.464-0.221c-0.732-0.733-0.571-1.64-0.257-2.479c0.942-2.521,1.679-5.084,1.709-7.798
	c0.019-1.681-0.752-2.368-2.444-2.524c-9.455-0.874-18.14-3.86-25.76-9.628c-6.42-4.86-11.063-11.017-13.064-18.905
	c-2.459-9.694-0.388-18.542,5.602-26.439c6.456-8.51,15.279-13.368,25.479-15.947c5.621-1.421,11.36-1.819,17.109-1.351
	c10.501,0.854,20.082,4.264,28.213,11.128c6.102,5.15,10.388,11.503,11.912,19.478C89.68,32.636,89.783,34.52,90,36.382z
	 M52.825,38.086c-0.417-0.498-0.624-0.72-0.802-0.962c-2.653-3.607-5.301-7.218-7.954-10.824c-0.874-1.186-1.977-1.63-3.052-1.249
	c-0.988,0.35-1.523,1.274-1.527,2.703c-0.015,5.529-0.026,11.058-0.026,16.586c0,1.771,0.957,2.868,2.434,2.846
	c1.456-0.021,2.265-1.014,2.267-2.83c0.001-3.033-0.018-6.066-0.022-9.1c0-0.313,0.041-0.626,0.08-1.17
	c0.286,0.341,0.411,0.475,0.52,0.621c2.749,3.727,5.491,7.458,8.246,11.181c0.835,1.129,1.853,1.552,2.85,1.239
	c1.086-0.341,1.647-1.247,1.647-2.737c0.003-5.605,0-11.211-0.01-16.817c-0.003-1.622-0.957-2.685-2.369-2.659
	c-1.438,0.026-2.363,1.333-2.317,2.716C52.901,30.994,52.825,34.366,52.825,38.086z M65.367,29.571c2.125,0,4.156,0.027,6.186-0.009
	c1.531-0.028,2.51-0.932,2.543-2.242c0.035-1.399-0.902-2.338-2.462-2.466c-0.076-0.006-0.153-0.004-0.23-0.004
	c-2.688,0.004-5.376-0.016-8.063,0.021c-1.76,0.023-2.693,0.863-2.7,2.452c-0.027,5.837-0.032,11.674-0.013,17.511
	c0.004,1.424,0.916,2.334,2.285,2.345c2.995,0.023,5.99,0.023,8.985,0c1.328-0.01,2.277-1.078,2.216-2.403
	c-0.061-1.31-1.082-2.228-2.564-2.243c-2.06-0.021-4.119-0.005-6.164-0.005c0-1.466,0-2.781,0-4.113
	c2.137,0,4.177,0.085,6.202-0.046c0.706-0.046,1.501-0.492,2.032-0.993c0.648-0.613,0.639-1.496,0.229-2.343
	c-0.437-0.904-1.169-1.28-2.124-1.284c-2.101-0.01-4.202-0.003-6.356-0.003C65.367,32.333,65.367,31.044,65.367,29.571z
	 M20.471,42.54c0-0.528,0.001-0.871,0-1.214c-0.014-4.455-0.016-8.909-0.055-13.363c-0.006-0.634-0.057-1.331-0.323-1.885
	c-0.464-0.967-1.63-1.38-2.665-1.032c-1.121,0.377-1.597,1.259-1.604,2.4c-0.017,2.496-0.013,4.992-0.019,7.488
	c-0.007,3.149-0.03,6.298-0.018,9.447c0.008,1.953,0.882,2.803,2.814,2.805c2.688,0.003,5.376,0.008,8.064-0.007
	c0.412-0.002,0.855-0.03,1.228-0.184c1.022-0.42,1.622-1.528,1.429-2.494c-0.216-1.081-1.209-1.936-2.386-1.953
	C24.833,42.518,22.728,42.54,20.471,42.54z M36.115,35.986c-0.015,0-0.03,0-0.044,0c0-2.837,0.009-5.674-0.004-8.511
	c-0.007-1.549-0.848-2.491-2.201-2.515c-1.423-0.025-2.318,0.903-2.329,2.521c-0.037,5.674-0.062,11.347-0.046,17.021
	c0.001,0.578,0.181,1.234,0.492,1.715c0.572,0.887,1.512,1.201,2.516,0.875c1.035-0.337,1.617-1.115,1.617-2.25
	C36.116,41.89,36.115,38.938,36.115,35.986z"/>
</svg>
