<?xml version="1.0" encoding="utf-8"?>
<!-- Generator: Adobe Illustrator 16.0.0, SVG Export Plug-In . SVG Version: 6.00 Build 0)  -->
<!DOCTYPE svg PUBLIC "-//W3C//DTD SVG 1.1//EN" "http://www.w3.org/Graphics/SVG/1.1/DTD/svg11.dtd">
<svg version="1.1" id="Layer_4" xmlns="http://www.w3.org/2000/svg" xmlns:xlink="http://www.w3.org/1999/xlink" x="0px" y="0px"
	 width="180px" height="160px" viewBox="0 0 180 160" enable-background="new 0 0 180 160" xml:space="preserve">
<g>
	<path fill="#FFFFFF" d="M159.576,103.482c4.019-0.05,9.715-3.562,9.707-7.839c0-15.897,0-31.791,0-47.688
		c-0.006-4.289-3.123-9.246-7.097-10.552c-13.675-4.396-28.253-4.396-41.932,0c-3.969,1.302-7.094,6.273-7.097,10.552
		c0,15.897,0,31.791,0,47.688c-0.007,4.253,5.683,7.793,9.71,7.839H159.576z"/>
	<polygon fill="#FFFFFF" points="73.919,93.933 56.61,99.582 44.91,63.759 62.218,58.105 	"/>
	<g>
		<path fill="#FFFFFF" d="M102.191,87.979c0,6.236-5.052,11.294-11.287,11.294c-6.24,0-11.295-5.058-11.295-11.294
			s5.055-11.293,11.295-11.293C97.14,76.686,102.191,81.743,102.191,87.979z"/>
		<path fill="#282D33" d="M90.904,102.415c-7.96,0-14.435-6.477-14.435-14.436s6.475-14.434,14.435-14.434
			c7.955,0,14.428,6.475,14.428,14.434S98.859,102.415,90.904,102.415z M90.904,79.826c-4.496,0-8.154,3.658-8.154,8.153
			c0,4.496,3.658,8.155,8.154,8.155c4.492,0,8.146-3.659,8.146-8.155C99.051,83.484,95.396,79.826,90.904,79.826z"/>
	</g>
	<g>
		<polygon fill="#282D33" points="90.901,129.954 65.587,96.936 70.571,93.113 90.901,119.632 111.23,93.113 116.216,96.936 		"/>
	</g>
	<g>
		<rect x="78.603" y="108.564" fill="#FFFFFF" width="24.598" height="26.693"/>
		<path fill="#282D33" d="M106.341,138.398H75.462v-32.977h30.879V138.398z M81.743,132.118h18.316v-20.415H81.743V132.118z"/>
	</g>
	<g>
		<g>
			<rect x="80.695" y="134.734" fill="#282D33" width="6.281" height="22.508"/>
		</g>
		<g>
			<rect x="94.827" y="134.734" fill="#282D33" width="6.28" height="22.508"/>
		</g>
	</g>
	<g>
		<g>
			<path fill="#FFFFFF" d="M45.637,156.859c2.496-23.229,4.99-46.454,7.485-69.685c-9.384,0-18.766,0-28.15,0
				c2.493,23.23,4.99,46.456,7.482,69.685H45.637z"/>
		</g>
	</g>
	<path fill="#F8C44F" d="M141.218,105.91v50.95V105.91z"/>
	<rect x="124.888" y="55.28" fill="#FFFFFF" width="32.668" height="101.581"/>
	<polygon fill="#282D33" points="160.695,160 121.749,160 121.749,55.279 128.03,55.279 128.03,153.719 154.414,153.719 
		154.414,55.279 160.695,55.279 	"/>
	<g>
		<rect x="138.079" y="105.91" fill="#282D33" width="6.28" height="50.95"/>
	</g>
	<g>
		<rect x="35.226" y="122.697" fill="#282D33" width="6.281" height="34.163"/>
	</g>
	<path fill="#FFFFFF" d="M60.869,52.666c-1.349-4.288-5.011-9.256-7.878-10.551c-5.041-2.196-9.488-3.294-13.939-3.296h-0.012
		c-4.448,0.001-8.898,1.1-13.94,3.296c-2.865,1.299-6.533,6.273-7.879,10.551c-2.081,6.947-4.156,13.893-6.236,20.838
		c2.08,6.947,4.159,13.896,6.24,20.842c1.349,4.287,5.011,9.255,7.878,10.553c5.041,2.195,9.488,3.292,13.938,3.294h0.012
		c4.45-0.002,8.899-1.099,13.942-3.294c2.865-1.301,6.532-6.275,7.878-10.553c2.08-6.942,4.158-13.888,6.237-20.835
		C65.029,66.561,62.949,59.613,60.869,52.666z"/>
	<path fill="#FFFFFF" d="M26.777,55.279c-4.643,22.774-9.287,45.551-13.931,68.328c17.468,0,34.931,0,52.397,0
		c-4.644-22.776-9.287-45.554-13.931-68.328H26.777z"/>
	<polygon fill="#282D33" points="69.089,126.746 9,126.746 23.702,54.652 29.854,55.906 16.691,120.464 61.399,120.464 
		48.236,55.906 54.39,54.652 	"/>
	<path fill="#FFFFFF" d="M156.57,18.493c0,8.48-6.872,15.352-15.347,15.352c-8.482,0-15.352-6.872-15.352-15.352
		c0-8.479,6.869-15.352,15.352-15.352C149.698,3.141,156.57,10.014,156.57,18.493z"/>
	<path fill="#282D33" d="M141.224,36.986c-10.197,0-18.493-8.296-18.493-18.493C122.73,8.298,131.026,0,141.224,0
		c10.194,0,18.487,8.297,18.487,18.493C159.711,28.69,151.418,36.986,141.224,36.986z M141.224,6.282
		c-6.733,0-12.213,5.479-12.213,12.211s5.479,12.211,12.213,12.211c6.73,0,12.206-5.479,12.206-12.211S147.954,6.282,141.224,6.282z
		"/>
	<path fill="#FFFFFF" d="M54.395,24.774c0,8.48-6.87,15.352-15.346,15.352c-8.48,0-15.35-6.872-15.35-15.352
		c0-8.479,6.87-15.352,15.35-15.352C47.525,9.422,54.395,16.295,54.395,24.774z"/>
	<path fill="#282D33" d="M39.049,43.267c-10.196,0-18.491-8.295-18.491-18.492c0-10.196,8.294-18.493,18.491-18.493
		c10.193,0,18.486,8.297,18.486,18.493C57.535,34.971,49.242,43.267,39.049,43.267z M39.049,12.562
		c-6.733,0-12.209,5.479-12.209,12.212s5.476,12.211,12.209,12.211c6.73,0,12.205-5.479,12.205-12.211S45.779,12.562,39.049,12.562z
		"/>
</g>
</svg>
