<?xml version="1.0" encoding="utf-8"?>
<!-- Generator: Adobe Illustrator 16.0.0, SVG Export Plug-In . SVG Version: 6.00 Build 0)  -->
<!DOCTYPE svg PUBLIC "-//W3C//DTD SVG 1.1//EN" "http://www.w3.org/Graphics/SVG/1.1/DTD/svg11.dtd">
<svg version="1.1" id="Layer_4" xmlns="http://www.w3.org/2000/svg" xmlns:xlink="http://www.w3.org/1999/xlink" x="0px" y="0px"
	 width="180px" height="160px" viewBox="0 0 180 160" enable-background="new 0 0 180 160" xml:space="preserve">
<g>
	<g>
		<path fill="#FFFFFF" d="M152.165,107.994v31.305V107.994z"/>
		<rect x="149.02" y="107.994" fill="#282D33" width="6.288" height="31.305"/>
	</g>
	<g>
		<path fill="#FFFFFF" d="M135.471,52.621h12.265c2.445,0,4.43,1.986,4.43,4.431v4.182L135.471,52.621z"/>
		<path fill="#282D33" d="M155.308,61.233h-6.288v-4.182c0-0.711-0.576-1.286-1.284-1.286h-12.265v-6.286h12.265
			c4.175,0,7.572,3.397,7.572,7.572V61.233z"/>
	</g>
	<g>
		<path fill="#FFFFFF" d="M98.133,52.621h17.952H98.133z"/>
		<rect x="98.133" y="49.479" fill="#282D33" width="17.952" height="6.286"/>
	</g>
	<path fill="#FFFFFF" d="M22.466,139.299V57.052c0-2.444,1.989-4.431,4.429-4.431h61.159L22.466,139.299z"/>
	<path fill="#282D33" d="M25.609,139.299h-6.287V57.052c0-4.175,3.398-7.572,7.572-7.572h61.159v6.286H26.895
		c-0.707,0-1.285,0.575-1.285,1.286V139.299z"/>
	<rect x="31.896" y="62.053" fill="#FFFFFF" width="110.84" height="67.689"/>
	<g>
		<path fill="#FFFFFF" d="M3.144,138.892v7.958c0,0,5.817,4.342,10.094,4.342h53.559h41.039h53.558
			c4.276,0,10.098-4.342,10.098-4.342v-7.958H3.144z"/>
		<path fill="#282D33" d="M161.393,154.335H13.237c-5.17,0-11.294-4.46-11.975-4.97L0,148.423v-12.674h174.634v12.674l-1.265,0.942
			C172.688,149.875,166.563,154.335,161.393,154.335z M6.287,145.196c2.081,1.338,5.048,2.852,6.95,2.852h148.155
			c1.948,0,4.98-1.595,6.953-2.854v-3.158H6.287V145.196z"/>
	</g>
	<g>
		<path fill="#282D33" d="M135.794,109.314h-2.762c-10.865,0-19.706-8.84-19.706-19.703V49.053h6.287v40.559
			c0,7.398,6.021,13.417,13.419,13.417h2.762c7.4,0,13.418-6.019,13.418-13.417V70.285h6.288v19.326
			C155.5,100.475,146.659,109.314,135.794,109.314z"/>
	</g>
	<g>
		<path fill="#282D33" d="M92.785,80.702h-6.287V41.054c0-8.533,6.942-15.473,15.476-15.473h2.053
			c8.534,0,15.477,6.939,15.477,15.473v14.712h-6.287V41.054c0-5.066-4.123-9.187-9.189-9.187h-2.053
			c-5.065,0-9.188,4.12-9.188,9.187V80.702z"/>
	</g>
	<g>
		<path fill="#FFFFFF" d="M75.542,94.18c0,7.625,6.182,13.806,13.804,13.806c7.624,0,13.807-6.181,13.807-13.806
			c0-7.621-6.183-13.803-13.807-13.803C81.724,80.377,75.542,86.559,75.542,94.18z"/>
		<path fill="#282D33" d="M89.346,111.128c-9.345,0-16.948-7.604-16.948-16.948c0-9.344,7.604-16.945,16.948-16.945
			c9.347,0,16.949,7.602,16.949,16.945C106.295,103.524,98.692,111.128,89.346,111.128z M89.346,83.521
			c-5.877,0-10.66,4.778-10.66,10.658c0,5.878,4.783,10.662,10.66,10.662c5.88,0,10.662-4.784,10.662-10.662
			C100.008,88.3,95.226,83.521,89.346,83.521z"/>
	</g>
	<g>
		<g>
			<path fill="#FFFFFF" d="M180,39.602h-6.287V20.301c0-4.171-3.394-7.563-7.562-7.563V6.45c7.637,0,13.85,6.213,13.85,13.851
				V39.602z"/>
		</g>
	</g>
	<g>
		<g>
			<path fill="#FFFFFF" d="M130.162,39.776h-6.287V20.473c0-7.638,6.216-13.851,13.854-13.851v6.287
				c-4.173,0-7.566,3.394-7.566,7.563V39.776z"/>
		</g>
	</g>
	<g>
		<path fill="#282D33" d="M135.051,14.243l-3.108-7.219c1.834-0.789,3.78-1.19,5.786-1.19v7.858
			C136.797,13.692,135.896,13.879,135.051,14.243z"/>
	</g>
	<g>
		<path fill="#282D33" d="M157.532,74.351h-11.041c-12.389,0-22.468-10.078-22.468-22.466v-12.31h6.286v12.31
			c0,8.922,7.258,16.179,16.182,16.179h11.041c8.923,0,16.181-7.257,16.181-16.179v-12.31H180v12.31
			C180,64.272,169.922,74.351,157.532,74.351z"/>
	</g>
	<g>
		<path fill="#282D33" d="M168.911,14.11c-0.862-0.388-1.793-0.587-2.761-0.587V5.665c2.09,0,4.104,0.43,5.989,1.278L168.911,14.11z
			"/>
	</g>
	<g>
		<rect x="49.09" y="69.014" fill="#282D33" width="8.247" height="25.839"/>
		<rect x="40.294" y="77.811" fill="#282D33" width="25.839" height="8.246"/>
	</g>
</g>
</svg>
