<?xml version="1.0" encoding="utf-8"?>
<!-- Generator: Adobe Illustrator 16.0.0, SVG Export Plug-In . SVG Version: 6.00 Build 0)  -->
<!DOCTYPE svg PUBLIC "-//W3C//DTD SVG 1.1//EN" "http://www.w3.org/Graphics/SVG/1.1/DTD/svg11.dtd">
<svg version="1.1" id="圖層_1" xmlns="http://www.w3.org/2000/svg" xmlns:xlink="http://www.w3.org/1999/xlink" x="0px" y="0px"
	 width="78px" height="140px" viewBox="0 0 78 140" enable-background="new 0 0 78 140" xml:space="preserve">
<path fill="#F17215" d="M76.016,65.108l-0.599-0.599L13.901,2.995c-0.391-0.5-0.842-0.951-1.343-1.343C11.239,0.621,9.582,0,7.776,0
	C3.481,0,0,3.481,0,7.776v62.381v62.382c0,4.295,3.481,7.777,7.776,7.777c1.805,0,3.462-0.621,4.782-1.652
	c0.5-0.393,0.952-0.842,1.343-1.344l61.516-61.516l0.599-0.599c1.207-1.347,1.95-3.106,1.983-5.05
	C77.966,68.217,77.223,66.453,76.016,65.108z"/>
</svg>
