<?xml version="1.0" encoding="utf-8"?>
<!-- Generator: Adobe Illustrator 16.0.0, SVG Export Plug-In . SVG Version: 6.00 Build 0)  -->
<!DOCTYPE svg PUBLIC "-//W3C//DTD SVG 1.1//EN" "http://www.w3.org/Graphics/SVG/1.1/DTD/svg11.dtd">
<svg version="1.1" id="Icons" xmlns="http://www.w3.org/2000/svg" xmlns:xlink="http://www.w3.org/1999/xlink" x="0px" y="0px"
	 width="300px" height="300px" viewBox="0 0 300 300" enable-background="new 0 0 300 300" xml:space="preserve">
<g>
	<g>
		<g>
			<g>
				<g>
					<g>
						<path fill="#FFFFFF" d="M150.022,300c-29.559,0-58.072-8.614-82.702-24.951l-51.785,24.209L33.452,244.3
							C11.854,217.665,0,184.323,0,150.006C0,67.292,67.301,0,150.022,0v12.532c-75.811,0-137.489,61.671-137.489,137.474
							c0,32.519,11.621,64.088,32.722,88.891l2.271,2.669l-11.116,34.1l32.111-15.012l2.965,2.07
							c23.188,16.188,50.346,24.745,78.537,24.745c75.788,0,137.446-61.665,137.446-137.461H300C300,232.713,232.72,300,150.022,300
							z"/>
					</g>
				</g>
			</g>
		</g>
	</g>
	<g>
		<g>
			<path fill="#FFFFFF" d="M300,150.006h-12.532c0-2.006-0.042-4.004-0.129-5.989l12.521-0.554
				C299.956,145.633,300,147.814,300,150.006z"/>
		</g>
		<g>
			<path fill="#FFFFFF" d="M286.308,132.051c-0.514-3.959-1.21-7.931-2.065-11.802l12.239-2.702
				c0.934,4.229,1.692,8.565,2.255,12.885L286.308,132.051z M281.149,108.669c-1.195-3.797-2.573-7.586-4.096-11.261l11.578-4.798
				c1.663,4.013,3.167,8.149,4.472,12.295L281.149,108.669z M271.986,86.545c-1.836-3.522-3.854-7.013-6-10.378l10.568-6.737
				c2.341,3.671,4.542,7.48,6.545,11.324L271.986,86.545z M259.104,66.349c-2.419-3.151-5.012-6.242-7.708-9.185l9.244-8.463
				c2.938,3.209,5.766,6.58,8.405,10.018L259.104,66.349z M242.92,48.683c-2.934-2.693-6.023-5.289-9.178-7.715l7.641-9.935
				c3.442,2.648,6.81,5.478,10.01,8.416L242.92,48.683z M223.931,34.078c-3.355-2.144-6.845-4.166-10.371-6.009l5.804-11.106
				c3.849,2.012,7.656,4.216,11.317,6.557L223.931,34.078z M202.705,22.99c-3.682-1.53-7.469-2.911-11.254-4.104l3.77-11.951
				c4.135,1.304,8.272,2.812,12.294,4.484L202.705,22.99z M179.873,15.783c-3.886-0.861-7.856-1.559-11.8-2.076l1.625-12.425
				c4.308,0.563,8.644,1.326,12.886,2.266L179.873,15.783z"/>
		</g>
		<g>
			<path fill="#FFFFFF" d="M156.021,12.661c-1.992-0.084-3.988-0.128-5.999-0.128V0c2.188,0,4.365,0.047,6.534,0.141L156.021,12.661
				z"/>
		</g>
	</g>
	<g>
		<g>
			<path fill="#FFFFFF" d="M147.653,229.109c-44.317,0-80.374-36.051-80.374-80.363c0-44.309,36.057-80.357,80.374-80.357
				c24.171,0,46.832,10.731,62.175,29.444l-9.693,7.946C187.183,89.98,168.055,80.92,147.653,80.92
				c-37.407,0-67.841,30.426-67.841,67.825c0,37.402,30.434,67.832,67.841,67.832c14.888,0,29.022-4.738,40.876-13.7l7.558,9.996
				C182.041,223.495,165.292,229.109,147.653,229.109z"/>
		</g>
		<g>
			<path fill="#FFFFFF" d="M134.267,187.889c-0.001,0,0,0-0.001,0c-3.127,0-6.442-0.499-9.85-1.479
				c-10.292-2.957-17.788-11.227-20.56-22.688c-3.721-15.377,1.946-32.432,14.791-44.506c11.226-10.542,26.566-12.754,37.459-12.754
				c9.166,0,16.012,1.537,16.299,1.603l6.563,1.496l-1.963,6.44c-0.546,1.793-13.415,43.991-15.713,50.565
				C159.068,172.967,151.971,187.889,134.267,187.889z M156.106,118.993c-8.629,0-20.643,1.623-28.877,9.354
				c-11.436,10.75-13.281,23.799-11.192,32.427c1.684,6.959,6,11.913,11.843,13.591c2.284,0.658,4.432,0.991,6.386,0.991
				c9.314,0,13.515-8.093,15.192-12.917c1.67-4.78,9.572-30.518,13.431-43.128C160.919,119.128,158.614,118.993,156.106,118.993z"/>
		</g>
		<g>
			<path fill="#FFFFFF" d="M178.88,187.152c-6.857,0-13.192-2.354-18.227-6.931c-10.749-9.774-2.044-45.418,2.197-60.289
				l12.052,3.436c-6.04,21.2-8.784,43.907-5.758,47.641c5.329,4.84,11.971,3.978,16.593,2.39
				c10.524-3.617,22.635-15.704,25.415-31.805c2.02-11.692-0.185-29.308-22.156-46.821l7.812-9.8
				c28.176,22.46,28.818,46.452,26.695,58.754c-3.237,18.744-17.092,35.818-33.693,41.523
				C186.1,186.524,182.42,187.152,178.88,187.152z"/>
		</g>
	</g>
</g>
</svg>
