<?xml version="1.0" encoding="utf-8"?>
<!-- Generator: Adobe Illustrator 16.0.0, SVG Export Plug-In . SVG Version: 6.00 Build 0)  -->
<!DOCTYPE svg PUBLIC "-//W3C//DTD SVG 1.1//EN" "http://www.w3.org/Graphics/SVG/1.1/DTD/svg11.dtd">
<svg version="1.1" id="圖層_1" xmlns="http://www.w3.org/2000/svg" xmlns:xlink="http://www.w3.org/1999/xlink" x="0px" y="0px"
	 width="320px" height="305px" viewBox="0 0 320 305" enable-background="new 0 0 320 305" xml:space="preserve">
<path fill-rule="evenodd" clip-rule="evenodd" d="M320,129.334c-0.688,26.711-10.501,49.824-27.072,70.287
	c-19.76,24.399-44.472,43.306-69.525,61.738c-20.836,15.33-42.794,28.938-65.759,40.884c-1.203,0.625-2.441,1.196-3.706,1.682
	c-3.037,1.16-6.145,1.84-8.763-0.785c-2.601-2.606-2.028-5.829-0.914-8.812c3.349-8.966,5.969-18.079,6.077-27.726
	c0.067-5.977-2.674-8.419-8.69-8.976c-33.619-3.108-64.497-13.726-91.591-34.234c-22.829-17.28-39.337-39.172-46.452-67.219
	c-8.743-34.469-1.381-65.928,19.918-94.006C46.476,31.911,77.85,14.637,114.116,5.467C134.101,0.414,154.507-1,174.948,0.664
	c37.337,3.038,71.401,15.16,100.314,39.566c21.696,18.314,36.936,40.899,42.353,69.255C318.862,116.015,319.228,122.714,320,129.334
	z M187.821,135.392c-1.482-1.771-2.217-2.558-2.851-3.42c-9.434-12.824-18.846-25.664-28.282-38.485
	c-3.104-4.218-7.029-5.796-10.85-4.442c-3.513,1.244-5.417,4.533-5.43,9.612c-0.051,19.658-0.092,39.315-0.093,58.974
	c0,6.296,3.401,10.196,8.653,10.119c5.175-0.077,8.054-3.607,8.058-10.064c0.006-10.784-0.062-21.569-0.079-32.354
	c-0.001-1.112,0.146-2.226,0.283-4.161c1.017,1.211,1.462,1.687,1.847,2.208c9.773,13.25,19.523,26.519,29.318,39.753
	c2.971,4.014,6.589,5.518,10.131,4.406c3.861-1.212,5.856-4.433,5.859-9.733c0.011-19.931,0-39.862-0.036-59.793
	c-0.01-5.767-3.401-9.547-8.421-9.455c-5.115,0.094-8.402,4.738-8.238,9.655C188.091,110.178,187.821,122.167,187.821,135.392z
	 M232.416,105.116c7.558,0,14.777,0.098,21.993-0.032c5.443-0.098,8.926-3.312,9.043-7.97c0.124-4.975-3.208-8.314-8.754-8.768
	c-0.271-0.022-0.546-0.016-0.819-0.016c-9.557,0.014-19.116-0.056-28.671,0.073c-6.258,0.083-9.575,3.069-9.601,8.717
	c-0.094,20.753-0.113,41.506-0.046,62.259c0.017,5.062,3.255,8.3,8.125,8.338c10.648,0.083,21.299,0.084,31.947,0.003
	c4.723-0.036,8.097-3.834,7.879-8.544c-0.215-4.658-3.847-7.921-9.116-7.975c-7.322-0.075-14.646-0.019-21.916-0.019
	c0-5.212,0-9.887,0-14.624c7.599,0,14.85,0.302,22.051-0.164c2.509-0.162,5.339-1.75,7.225-3.531c2.305-2.18,2.271-5.32,0.813-8.33
	c-1.555-3.215-4.157-4.551-7.55-4.566c-7.471-0.035-14.942-0.011-22.602-0.011C232.416,114.935,232.416,110.355,232.416,105.116z
	 M72.787,151.228c0-1.878,0.003-3.097,0-4.316c-0.049-15.838-0.056-31.677-0.195-47.515c-0.02-2.254-0.202-4.731-1.149-6.703
	c-1.651-3.439-5.797-4.908-9.474-3.67c-3.983,1.341-5.678,4.478-5.705,8.534c-0.059,8.874-0.047,17.75-0.066,26.625
	c-0.026,11.196-0.107,22.392-0.062,33.587c0.028,6.943,3.137,9.966,10.006,9.975c9.558,0.012,19.116,0.03,28.673-0.024
	c1.463-0.008,3.041-0.107,4.365-0.652c3.635-1.496,5.768-5.433,5.08-8.866c-0.77-3.843-4.3-6.885-8.483-6.945
	C88.294,151.15,80.811,151.228,72.787,151.228z M128.408,127.925c-0.053,0-0.105,0-0.158,0c0-10.086,0.032-20.173-0.013-30.26
	c-0.024-5.509-3.017-8.857-7.827-8.943c-5.06-0.091-8.244,3.211-8.282,8.964c-0.131,20.172-0.219,40.345-0.165,60.518
	c0.005,2.055,0.643,4.387,1.748,6.099c2.036,3.154,5.376,4.27,8.944,3.11c3.682-1.198,5.749-3.963,5.75-8.002
	C128.411,148.916,128.408,138.42,128.408,127.925z"/>
</svg>
