<?xml version="1.0" encoding="utf-8"?>
<!-- Generator: Adobe Illustrator 16.0.0, SVG Export Plug-In . SVG Version: 6.00 Build 0)  -->
<!DOCTYPE svg PUBLIC "-//W3C//DTD SVG 1.1//EN" "http://www.w3.org/Graphics/SVG/1.1/DTD/svg11.dtd">
<svg version="1.1" id="Icons" xmlns="http://www.w3.org/2000/svg" xmlns:xlink="http://www.w3.org/1999/xlink" x="0px" y="0px"
	 width="300px" height="300px" viewBox="0 0 300 300" enable-background="new 0 0 300 300" xml:space="preserve">
<g>
	<g>
		<g>
			<path fill="#FFFFFF" d="M29.084,296.396v-45.045H0v-129.04h174.225v129.04H75.902L29.084,296.396z M12.505,238.846h29.084v28.165
				l29.272-28.165h90.858v-104.03H12.505V238.846z"/>
		</g>
		<g>
			<rect x="42.122" y="164.209" fill="#FFFFFF" width="89.987" height="12.506"/>
		</g>
		<g>
			<rect x="42.122" y="194.633" fill="#FFFFFF" width="89.987" height="12.505"/>
		</g>
	</g>
	<g>
		<path fill="#FFFFFF" d="M195.271,213.063v-12.505c21.062,0,40.902-6.933,57.375-20.046l2.465-1.965l14.16,3.792l-3.793-14.154
			l1.963-2.467c13.12-16.481,20.055-36.325,20.055-57.385c0-50.854-41.371-92.225-92.225-92.225s-92.225,41.371-92.225,92.225
			H90.541c0-57.749,46.98-104.729,104.729-104.729C253.019,3.604,300,50.585,300,108.334c0,22.853-7.189,44.445-20.827,62.65
			l7.783,29.035l-29.044-7.776C239.714,205.875,218.125,213.063,195.271,213.063z"/>
	</g>
	<g>
		<path fill="#FFFFFF" d="M132.225,108.334H119.72c0-23.264,10.482-44.886,28.758-59.32l7.751,9.812
			C140.973,70.877,132.225,88.92,132.225,108.334z"/>
	</g>
	<g>
		<g>
			<path fill="#FFFFFF" d="M217.359,123.818l-7.926-9.672l15.335-12.508c4.012-2.547,8.794-6.497,8.794-10.848V76.717
				c0-7.959-6.469-14.435-14.422-14.435h-16.605c-7.95,0-14.418,6.476-14.418,14.435v6.576h-12.505v-6.576
				c0-14.854,12.078-26.939,26.923-26.939h16.605c14.848,0,26.927,12.085,26.927,26.939v14.074c0,7.962-4.801,15.091-14.268,21.195
				L217.359,123.818z"/>
		</g>
		<g>
			<path fill="#FFFFFF" d="M206.489,150.27h-12.505v-14.074c0-7.958,4.801-15.085,14.27-21.188l14.442-11.845l7.929,9.669
				l-15.34,12.522c-4.012,2.547-8.795,6.496-8.795,10.841V150.27z"/>
		</g>
		<g>
			<rect x="193.984" y="163.66" fill="#FFFFFF" width="12.505" height="16.089"/>
		</g>
	</g>
</g>
</svg>
