<?xml version="1.0" encoding="utf-8"?>
<!-- Generator: Adobe Illustrator 16.0.0, SVG Export Plug-In . SVG Version: 6.00 Build 0)  -->
<!DOCTYPE svg PUBLIC "-//W3C//DTD SVG 1.1//EN" "http://www.w3.org/Graphics/SVG/1.1/DTD/svg11.dtd">
<svg version="1.1" id="Layer_4" xmlns="http://www.w3.org/2000/svg" xmlns:xlink="http://www.w3.org/1999/xlink" x="0px" y="0px"
	 width="180px" height="160px" viewBox="0 0 180 160" enable-background="new 0 0 180 160" xml:space="preserve">
<g>
	<path fill="#282D33" d="M153.417,160l-87.829-0.047c-7.772,0-14.097-6.327-14.097-14.105l0.067-119.104
		c0.018-7.775,6.343-14.094,14.099-14.094l14.937,0.009l-0.002,5.755l-14.937-0.009c-4.589,0-8.331,3.744-8.342,8.347L57.246,145.85
		c0,4.605,3.743,8.348,8.344,8.348l87.829,0.047c4.602,0,8.347-3.742,8.347-8.342l0.07-119.106c0-4.6-3.741-8.344-8.34-8.344
		l-19.658-0.012l0.003-5.755l19.656,0.012c7.771,0,14.095,6.325,14.095,14.101l-0.07,119.105
		C167.521,153.677,161.194,160,153.417,160z"/>
	<g>
		<g>
			<rect x="71.967" y="31.966" fill="#FFFFFF" width="75.767" height="107.151"/>
			<path fill="#282D33" d="M150.58,142.017l-81.521-0.045L69.12,29.068l81.52,0.042L150.58,142.017z M74.816,136.22l70.012,0.041
				l0.054-101.399l-70.009-0.035L74.816,136.22z"/>
		</g>
	</g>
	<g>
		<path fill="#FFFFFF" d="M112.538,16.994l-2.068-3.577c0.905-0.806,1.486-1.964,1.489-3.272c0.002-2.423-1.964-4.39-4.389-4.39
			c-2.426-0.004-4.393,1.96-4.396,4.387c0,1.303,0.582,2.466,1.483,3.271l-2.065,3.574l-4.979,8.611l9.945,0.006l9.945,0.004
			L112.538,16.994z M107.564,12.233c-1.152,0-2.085-0.936-2.085-2.088c0-1.153,0.936-2.088,2.091-2.088
			c1.151,0,2.088,0.935,2.085,2.088C109.655,11.3,108.72,12.233,107.564,12.233z"/>
		<path fill="#282D33" d="M122.484,28.49l-29.857-0.018l8.579-14.835c-0.59-1.063-0.909-2.266-0.909-3.494
			c0.006-4.009,3.265-7.265,7.267-7.265c1.948,0,3.773,0.755,5.146,2.129c1.372,1.373,2.128,3.199,2.127,5.141
			c-0.003,1.232-0.323,2.433-0.912,3.495L122.484,28.49z M102.601,22.724l9.922,0.006l-4.414-7.649c-0.358,0.039-0.731,0.04-1.09,0
			L102.601,22.724z M107.564,9.355c-0.435,0-0.787,0.356-0.787,0.79c-0.001,0.203,0.084,0.41,0.232,0.557
			c0.458,0.458,1.347,0.089,1.347-0.557C108.356,9.712,108.001,9.355,107.564,9.355z"/>
	</g>
	<g>
		<g>
			<path fill="#FFFFFF" d="M90.134,34.268l0.013-18.444l9.612,0.006l1.267-2.193c-0.589-1.063-0.908-2.263-0.908-3.494
				c0.005-4.009,3.265-7.265,7.267-7.265c1.948,0,3.774,0.755,5.146,2.129c1.371,1.373,2.126,3.199,2.124,5.141
				c0,1.231-0.319,2.432-0.908,3.496l1.264,2.193l10.549,0.007l-0.008,18.423H90.134z"/>
		</g>
	</g>
	<g>
		<path fill="#282D33" d="M107.384,5.755c0.002,0,0.004,0,0.006,0c2.426,0,4.39,1.967,4.387,4.39c0,1.308-0.578,2.466-1.483,3.272
			l2.062,3.577l0.992,1.719l9.332,0.006l-0.005,12.67H93.014l0.008-12.686l8.397,0.003l0.994-1.72l2.065-3.577
			c-0.901-0.802-1.483-1.965-1.483-3.268C102.998,7.717,104.962,5.755,107.384,5.755L107.384,5.755z M107.385,12.233
			c1.151,0,2.091-0.933,2.091-2.088c0-1.153-0.937-2.088-2.088-2.088c-1.152,0-2.088,0.935-2.088,2.088
			C105.3,11.297,106.232,12.233,107.385,12.233L107.385,12.233z M107.39,0h-0.006c-5.587,0-10.138,4.546-10.144,10.136
			c0,0.96,0.138,1.907,0.402,2.815l-4.617-0.002l-5.755-0.004l-0.004,5.755l-0.008,12.686l-0.004,5.759h5.759h29.661h5.752
			l0.003-5.752l0.006-12.669l0.002-5.754l-5.754-0.004l-5.555-0.002c0.265-0.908,0.403-1.855,0.403-2.817
			c0.003-2.704-1.051-5.253-2.967-7.172C112.65,1.057,110.102,0,107.39,0L107.39,0z"/>
	</g>
	<circle fill="#282D33" cx="109.542" cy="62.864" r="16.454"/>
	<g>
		<g>
			<rect x="106.662" y="53.566" fill="#FFFFFF" width="5.755" height="18.596"/>
		</g>
		<g>
			<rect x="100.242" y="59.986" fill="#FFFFFF" width="18.595" height="5.755"/>
		</g>
	</g>
	<g>
		<path fill="#FFFFFF" d="M86.042,104.448h47H86.042z"/>
		<rect x="86.042" y="101.57" fill="#282D33" width="47" height="5.755"/>
	</g>
	<g>
		<path fill="#FFFFFF" d="M86.042,117.875h47H86.042z"/>
		<rect x="86.042" y="114.997" fill="#282D33" width="47" height="5.755"/>
	</g>
	<g>
		
			<rect x="-26.284" y="75.118" transform="matrix(0.1165 0.9932 -0.9932 0.1165 111.4523 35.866)" fill="#FFFFFF" width="123.703" height="10.915"/>
		<polygon fill="#282D33" points="50.733,138.345 45.018,139.014 30.945,19.01 25.821,19.611 39.893,139.616 34.177,140.287 
			19.436,14.566 35.991,12.625 		"/>
		<g>
			<path fill="#FFFFFF" d="M32.495,94.41l10.503-1.231L32.495,94.41z"/>
			
				<rect x="32.459" y="90.916" transform="matrix(0.9932 -0.1165 0.1165 0.9932 -10.6655 5.0337)" fill="#282D33" width="10.575" height="5.755"/>
		</g>
		<g>
			<path fill="#FFFFFF" d="M31.532,86.193l10.502-1.231L31.532,86.193z"/>
			
				<rect x="31.496" y="82.7" transform="matrix(0.9932 -0.1165 0.1165 0.9932 -9.7153 4.8657)" fill="#282D33" width="10.575" height="5.755"/>
		</g>
		<g>
			<polygon fill="#282D33" points="23.152,69.747 17.437,70.417 12.408,27.54 36.345,24.734 37.015,30.449 18.795,32.586 			"/>
		</g>
		<g>
			<polygon fill="#FFFFFF" points="48.358,142.799 48.21,141.532 37.369,142.803 37.519,144.07 37.686,145.499 41.526,154.822 
				46.946,154.185 48.525,144.228 			"/>
			<path fill="#282D33" d="M49.446,156.79l-9.75,1.145l-4.822-11.704l-0.697-5.949l16.557-1.942l0.697,5.949L49.446,156.79z
				 M43.356,151.709l1.09-0.128l1.085-6.838l-4.812,0.563L43.356,151.709z"/>
		</g>
	</g>
</g>
</svg>
